<svg width="548" height="541" viewBox="0 0 548 541" fill="none" xmlns="http://www.w3.org/2000/svg">
<rect width="548" height="541" fill="black"/>
<rect x="126" y="46" width="10" height="80" transform="rotate(90 126 46)" fill="white"/>
<rect x="46" y="46" width="10" height="80" fill="white"/>
<rect x="46" y="410" width="10" height="80" fill="white"/>
<rect x="46" y="490" width="10" height="80" transform="rotate(-90 46 490)" fill="white"/>
<rect x="423" y="490" width="10" height="80" transform="rotate(-90 423 490)" fill="white"/>
<rect x="503" y="490" width="10" height="80" transform="rotate(-180 503 490)" fill="white"/>
<rect x="503" y="126" width="10" height="80" transform="rotate(-180 503 126)" fill="white"/>
<rect x="503" y="46" width="10" height="80" transform="rotate(90 503 46)" fill="white"/>
<rect width="230" height="230" transform="translate(159 156)" fill="white"/>
<path d="M282.683 221.4C291.534 221.4 298.322 223.713 303.049 228.339C307.877 232.865 310.29 239.302 310.29 247.649C310.29 252.074 309.285 256.147 307.273 259.869C305.262 263.59 302.295 266.557 298.373 268.769C294.551 270.982 289.824 272.189 284.192 272.39L283.89 268.166C287.41 268.166 291.031 268.669 294.752 269.674C298.473 270.68 301.893 272.289 305.01 274.502C308.229 276.714 310.793 279.631 312.704 283.251C314.715 286.872 315.721 291.347 315.721 296.678C315.721 302.41 314.766 307.238 312.855 311.16C310.944 314.982 308.379 318.099 305.161 320.513C302.043 322.826 298.523 324.486 294.601 325.491C290.779 326.497 286.907 327 282.985 327H243.31C241.6 327 240.142 326.397 238.935 325.19C237.829 323.983 237.275 322.525 237.275 320.815V227.434C237.275 225.725 237.829 224.317 238.935 223.21C240.142 222.003 241.6 221.4 243.31 221.4H282.683ZM280.873 233.318H248.439L250.249 230.602V268.166L248.59 266.205H281.175C285.6 266.205 289.371 264.797 292.489 261.981C295.707 259.064 297.317 254.79 297.317 249.158C297.317 244.129 295.858 240.257 292.942 237.542C290.025 234.726 286.002 233.318 280.873 233.318ZM282.08 278.273H249.193L250.249 277.217V316.591L249.042 315.233H282.533C288.466 315.233 293.294 313.725 297.015 310.707C300.837 307.69 302.747 303.014 302.747 296.678C302.747 291.75 301.742 287.978 299.73 285.363C297.719 282.648 295.104 280.787 291.886 279.782C288.768 278.776 285.499 278.273 282.08 278.273Z" fill="#08CB7B"/>
</svg>
