<svg width="567" height="567" viewBox="0 0 567 567" fill="none"
    xmlns="http://www.w3.org/2000/svg">
    <rect x="284.298" y="41.8769" width="340.533" height="340.533" transform="rotate(45 284.298 41.8769)" fill="black" stroke="white" stroke-width="24.6763"/>
    <path d="M187.909 153.54L284.482 56.9672L317.455 89.9399C328.767 101.253 336.033 112.566 339.252 123.878C342.655 135.191 342.471 146.228 338.701 156.989C335.114 167.75 328.445 178.005 318.696 187.754C308.947 197.504 298.646 204.218 287.793 207.897C277.124 211.576 266.087 211.76 254.682 208.449C243.461 205.138 232.194 197.826 220.882 186.513L187.909 153.54ZM220.744 156.023L235.23 170.509C243.323 178.603 251.003 183.708 258.269 185.823C265.627 187.846 272.755 187.433 279.653 184.581C286.643 181.638 293.633 176.672 300.623 169.682C307.521 162.783 312.442 155.839 315.385 148.849C318.328 141.859 318.788 134.685 316.765 127.327C314.741 119.969 309.683 112.244 301.589 104.15L287.103 89.664L220.744 156.023Z" fill="white"/>
    <path d="M199.148 423.022L331.029 361.772L350.894 381.637L289.644 513.517L270.883 494.756L285.505 464.683L247.845 427.023L217.634 441.507L199.148 423.022ZM266.468 418.056L294.472 446.06L320.545 391.845L266.468 418.056Z" fill="white"/>
    <path d="M350.927 349.298C314.13 386.095 254.471 386.095 217.674 349.298C180.878 312.502 180.878 252.842 217.674 216.046C254.471 179.249 314.13 179.249 350.927 216.046C387.724 252.842 387.724 312.502 350.927 349.298ZM234.662 233.033C207.247 260.448 207.247 304.896 234.662 332.311C262.077 359.726 306.525 359.726 333.94 332.311C361.355 304.896 361.355 260.448 333.94 233.033C306.525 205.618 262.077 205.618 234.662 233.033Z" fill="white"/>
</svg>
