<svg width="24" height="24" viewBox="0 0 24 24" fill="none" xmlns="http://www.w3.org/2000/svg">
<path d="M8.9465 22.0001C7.28159 22.013 5.79021 20.9726 5.22751 19.4056C4.66481 17.8386 5.15365 16.0871 6.4465 15.038C5.5295 14.2958 4.99673 13.1792 4.99673 11.9995C4.99673 10.8198 5.5295 9.70318 6.4465 8.961C5.15324 7.91224 4.66411 6.16063 5.22691 4.59356C5.78971 3.02649 7.28149 1.98632 8.9465 1.99987H15.0565C16.7215 1.98632 18.2133 3.02649 18.7761 4.59356C19.3389 6.16063 18.8498 7.91224 17.5565 8.961C18.8494 10.0101 19.3382 11.7616 18.7755 13.3286C18.2128 14.8956 16.7214 15.936 15.0565 15.923C14.2875 15.9239 13.535 15.7001 12.8915 15.279V18.079C12.8821 20.25 11.1175 22.0039 8.9465 22.0001ZM8.9245 15.924C7.74004 15.9427 6.7932 16.9148 6.80562 18.0993C6.81804 19.2839 7.78506 20.2358 8.96966 20.2297C10.1543 20.2236 11.1114 19.2616 11.1115 18.077V15.924H8.9235H8.9245ZM15.0575 9.847C13.8699 9.85307 12.9115 10.8197 12.9155 12.0073C12.9196 13.1949 13.8845 14.155 15.0722 14.153C16.2598 14.151 17.2215 13.1876 17.2215 12C17.2171 10.8081 16.2484 9.84479 15.0565 9.847H15.0575ZM8.9475 9.84697C8.17831 9.84289 7.46536 10.2495 7.0772 10.9135C6.68905 11.5776 6.68466 12.3983 7.0657 13.0665C7.44674 13.7347 8.15531 14.1489 8.9245 14.153H11.1115V9.84697H8.9475ZM12.8915 3.77V8.07702H15.0555C16.213 8.0824 17.168 7.17242 17.2185 6.016V6.451V5.923C17.2135 4.73248 16.247 3.77 15.0565 3.77H12.8915ZM8.9455 3.77C8.17631 3.77 7.46555 4.18036 7.08095 4.8465C6.69635 5.51264 6.69635 6.33336 7.08095 6.9995C7.46555 7.66564 8.17631 8.076 8.9455 8.076H11.1115V3.77H8.9455Z" fill="white"/>
</svg>
