<svg width="20" height="21" viewBox="0 0 20 21" fill="none"
    xmlns="http://www.w3.org/2000/svg">
    <path d="M9.99984 7.78695C9.3368 7.78695 8.70091 8.05034 8.23207 8.51918C7.76323 8.98802 7.49984 9.62391 7.49984 10.2869C7.49984 10.95 7.76323 11.5859 8.23207 12.0547C8.70091 12.5236 9.3368 12.7869 9.99984 12.7869C10.6629 12.7869 11.2988 12.5236 11.7676 12.0547C12.2364 11.5859 12.4998 10.95 12.4998 10.2869C12.4998 9.62391 12.2364 8.98802 11.7676 8.51918C11.2988 8.05034 10.6629 7.78695 9.99984 7.78695ZM9.99984 6.12028C11.1049 6.12028 12.1647 6.55927 12.9461 7.34067C13.7275 8.12207 14.1665 9.18188 14.1665 10.2869C14.1665 11.392 13.7275 12.4518 12.9461 13.2332C12.1647 14.0146 11.1049 14.4536 9.99984 14.4536C8.89477 14.4536 7.83496 14.0146 7.05356 13.2332C6.27216 12.4518 5.83317 11.392 5.83317 10.2869C5.83317 9.18188 6.27216 8.12207 7.05356 7.34067C7.83496 6.55927 8.89477 6.12028 9.99984 6.12028ZM15.4165 5.91195C15.4165 6.18821 15.3068 6.45317 15.1114 6.64852C14.9161 6.84387 14.6511 6.95361 14.3748 6.95361C14.0986 6.95361 13.8336 6.84387 13.6383 6.64852C13.4429 6.45317 13.3332 6.18821 13.3332 5.91195C13.3332 5.63568 13.4429 5.37073 13.6383 5.17538C13.8336 4.98003 14.0986 4.87028 14.3748 4.87028C14.6511 4.87028 14.9161 4.98003 15.1114 5.17538C15.3068 5.37073 15.4165 5.63568 15.4165 5.91195ZM9.99984 3.62028C7.93817 3.62028 7.60151 3.62611 6.64234 3.66861C5.98901 3.69945 5.55067 3.78695 5.144 3.94528C4.80368 4.07023 4.49602 4.2705 4.244 4.53111C3.98318 4.78311 3.78263 5.09077 3.65734 5.43111C3.499 5.83945 3.4115 6.27695 3.3815 6.92945C3.33817 7.84945 3.33317 8.17111 3.33317 10.2869C3.33317 12.3486 3.339 12.6853 3.3815 13.6444C3.41234 14.2969 3.49984 14.7361 3.65734 15.1419C3.799 15.5044 3.96567 15.7653 4.24234 16.0419C4.52317 16.3219 4.784 16.4894 5.14234 16.6278C5.554 16.7869 5.99234 16.8753 6.64234 16.9053C7.56234 16.9486 7.88401 16.9536 9.99984 16.9536C12.0615 16.9536 12.3982 16.9478 13.3573 16.9053C14.009 16.8744 14.4482 16.7869 14.8548 16.6294C15.1946 16.5039 15.5021 16.304 15.7548 16.0444C16.0357 15.7636 16.2032 15.5028 16.3415 15.1444C16.4998 14.7336 16.5882 14.2944 16.6182 13.6444C16.6615 12.7244 16.6665 12.4028 16.6665 10.2869C16.6665 8.22528 16.6607 7.88861 16.6182 6.92945C16.5873 6.27778 16.4998 5.83778 16.3415 5.43111C16.2159 5.09112 16.0157 4.78358 15.7557 4.53111C15.5038 4.27015 15.1961 4.06959 14.8557 3.94445C14.4473 3.78611 14.009 3.69861 13.3573 3.66861C12.4373 3.62528 12.1157 3.62028 9.99984 3.62028ZM9.99984 1.95361C12.264 1.95361 12.5465 1.96195 13.4348 2.00361C14.3223 2.04528 14.9265 2.18445 15.4582 2.39111C16.0082 2.60278 16.4715 2.88945 16.9348 3.35195C17.3586 3.76853 17.6865 4.27244 17.8957 4.82861C18.1015 5.35945 18.2415 5.96445 18.2832 6.85195C18.3223 7.74028 18.3332 8.02278 18.3332 10.2869C18.3332 12.5511 18.3248 12.8336 18.2832 13.7219C18.2415 14.6094 18.1015 15.2136 17.8957 15.7453C17.6871 16.3018 17.3591 16.8058 16.9348 17.2219C16.5181 17.6455 16.0143 17.9734 15.4582 18.1828C14.9273 18.3886 14.3223 18.5286 13.4348 18.5703C12.5465 18.6094 12.264 18.6203 9.99984 18.6203C7.73567 18.6203 7.45317 18.6119 6.56484 18.5703C5.67734 18.5286 5.07317 18.3886 4.5415 18.1828C3.98511 17.974 3.48111 17.6461 3.06484 17.2219C2.64101 16.8054 2.31311 16.3015 2.104 15.7453C1.89734 15.2144 1.75817 14.6094 1.7165 13.7219C1.67734 12.8336 1.6665 12.5511 1.6665 10.2869C1.6665 8.02278 1.67484 7.74028 1.7165 6.85195C1.75817 5.96361 1.89734 5.36028 2.104 4.82861C2.31253 4.2721 2.64051 3.76805 3.06484 3.35195C3.48123 2.92797 3.98519 2.60005 4.5415 2.39111C5.07317 2.18445 5.6765 2.04528 6.56484 2.00361C7.45317 1.96445 7.73567 1.95361 9.99984 1.95361Z" fill="white"/>
</svg>
