<svg width="18" height="18" viewBox="0 0 18 18" fill="none" xmlns="http://www.w3.org/2000/svg">
<path d="M9.00033 6.50002C8.33729 6.50002 7.7014 6.76341 7.23256 7.23225C6.76372 7.7011 6.50033 8.33698 6.50033 9.00002C6.50033 9.66306 6.76372 10.2989 7.23256 10.7678C7.7014 11.2366 8.33729 11.5 9.00033 11.5C9.66337 11.5 10.2993 11.2366 10.7681 10.7678C11.2369 10.2989 11.5003 9.66306 11.5003 9.00002C11.5003 8.33698 11.2369 7.7011 10.7681 7.23225C10.2993 6.76341 9.66337 6.50002 9.00033 6.50002ZM9.00033 4.83335C10.1054 4.83335 11.1652 5.27234 11.9466 6.05374C12.728 6.83514 13.167 7.89495 13.167 9.00002C13.167 10.1051 12.728 11.1649 11.9466 11.9463C11.1652 12.7277 10.1054 13.1667 9.00033 13.1667C7.89526 13.1667 6.83545 12.7277 6.05405 11.9463C5.27265 11.1649 4.83366 10.1051 4.83366 9.00002C4.83366 7.89495 5.27265 6.83514 6.05405 6.05374C6.83545 5.27234 7.89526 4.83335 9.00033 4.83335V4.83335ZM14.417 4.62502C14.417 4.90129 14.3072 5.16624 14.1119 5.36159C13.9165 5.55694 13.6516 5.66669 13.3753 5.66669C13.0991 5.66669 12.8341 5.55694 12.6388 5.36159C12.4434 5.16624 12.3337 4.90129 12.3337 4.62502C12.3337 4.34875 12.4434 4.0838 12.6388 3.88845C12.8341 3.6931 13.0991 3.58335 13.3753 3.58335C13.6516 3.58335 13.9165 3.6931 14.1119 3.88845C14.3072 4.0838 14.417 4.34875 14.417 4.62502V4.62502ZM9.00033 2.33335C6.93866 2.33335 6.60199 2.33919 5.64283 2.38169C4.98949 2.41252 4.55116 2.50002 4.14449 2.65835C3.80417 2.7833 3.4965 2.98357 3.24449 3.24419C2.98366 3.49619 2.78312 3.80384 2.65783 4.14419C2.49949 4.55252 2.41199 4.99002 2.38199 5.64252C2.33866 6.56252 2.33366 6.88419 2.33366 9.00002C2.33366 11.0617 2.33949 11.3984 2.38199 12.3575C2.41283 13.01 2.50033 13.4492 2.65783 13.855C2.79949 14.2175 2.96616 14.4784 3.24283 14.755C3.52366 15.035 3.78449 15.2025 4.14283 15.3409C4.55449 15.5 4.99283 15.5884 5.64283 15.6184C6.56283 15.6617 6.88449 15.6667 9.00033 15.6667C11.062 15.6667 11.3987 15.6609 12.3578 15.6184C13.0095 15.5875 13.4487 15.5 13.8553 15.3425C14.1951 15.2169 14.5026 15.0171 14.7553 14.7575C15.0362 14.4767 15.2037 14.2159 15.342 13.8575C15.5003 13.4467 15.5887 13.0075 15.6187 12.3575C15.662 11.4375 15.667 11.1159 15.667 9.00002C15.667 6.93835 15.6612 6.60169 15.6187 5.64252C15.5878 4.99085 15.5003 4.55085 15.342 4.14419C15.2164 3.80419 15.0162 3.49665 14.7562 3.24419C14.5043 2.98323 14.1966 2.78266 13.8562 2.65752C13.4478 2.49919 13.0095 2.41169 12.3578 2.38169C11.4378 2.33835 11.1162 2.33335 9.00033 2.33335ZM9.00033 0.666687C11.2645 0.666687 11.547 0.67502 12.4353 0.716687C13.3228 0.758354 13.927 0.89752 14.4587 1.10419C15.0087 1.31585 15.472 1.60252 15.9353 2.06502C16.3591 2.4816 16.687 2.98551 16.8962 3.54169C17.102 4.07252 17.242 4.67752 17.2837 5.56502C17.3228 6.45335 17.3337 6.73585 17.3337 9.00002C17.3337 11.2642 17.3253 11.5467 17.2837 12.435C17.242 13.3225 17.102 13.9267 16.8962 14.4584C16.6876 15.0148 16.3596 15.5189 15.9353 15.935C15.5186 16.3586 15.0148 16.6865 14.4587 16.8959C13.9278 17.1017 13.3228 17.2417 12.4353 17.2834C11.547 17.3225 11.2645 17.3334 9.00033 17.3334C6.73616 17.3334 6.45366 17.325 5.56533 17.2834C4.67783 17.2417 4.07366 17.1017 3.54199 16.8959C2.9856 16.6871 2.4816 16.3591 2.06533 15.935C1.6415 15.5185 1.3136 15.0146 1.10449 14.4584C0.897826 13.9275 0.758659 13.3225 0.716992 12.435C0.677825 11.5467 0.666992 11.2642 0.666992 9.00002C0.666992 6.73585 0.675325 6.45335 0.716992 5.56502C0.758659 4.67669 0.897826 4.07335 1.10449 3.54169C1.31302 2.98517 1.641 2.48112 2.06533 2.06502C2.48172 1.64105 2.98568 1.31313 3.54199 1.10419C4.07366 0.89752 4.67699 0.758354 5.56533 0.716687C6.45366 0.67752 6.73616 0.666687 9.00033 0.666687Z" fill="black"/>
</svg>
