<svg width="548" height="541" viewBox="0 0 548 541" fill="none" xmlns="http://www.w3.org/2000/svg">
<rect width="548" height="541" fill="black"/>
<rect x="126" y="46" width="10" height="80" transform="rotate(90 126 46)" fill="white"/>
<rect x="46" y="46" width="10" height="80" fill="white"/>
<rect x="46" y="410" width="10" height="80" fill="white"/>
<rect x="46" y="490" width="10" height="80" transform="rotate(-90 46 490)" fill="white"/>
<rect x="423" y="490" width="10" height="80" transform="rotate(-90 423 490)" fill="white"/>
<rect x="503" y="490" width="10" height="80" transform="rotate(-180 503 490)" fill="white"/>
<rect x="503" y="126" width="10" height="80" transform="rotate(-180 503 126)" fill="white"/>
<rect x="503" y="46" width="10" height="80" transform="rotate(90 503 46)" fill="white"/>
<rect x="159" y="144" width="230" height="230" fill="white"/>
<g clip-path="url(#clip0_1103_1420)">
<mask id="mask0_1103_1420" style="mask-type:luminance" maskUnits="userSpaceOnUse" x="190" y="224" width="168" height="69">
<path d="M357.421 224.352H190.73V292.648H357.421V224.352Z" fill="white"/>
</mask>
<g mask="url(#mask0_1103_1420)">
<path d="M225.112 292.642C244.1 292.642 259.493 277.354 259.493 258.497C259.493 239.639 244.1 224.352 225.112 224.352C206.124 224.352 190.73 239.639 190.73 258.497C190.73 277.354 206.124 292.642 225.112 292.642Z" fill="url(#paint0_linear_1103_1420)"/>
<path d="M200.369 275.698V244.686H204.041V258.51L217.159 244.686H221.6L208.197 258.648L222.919 275.698H218.12L204.041 259.01V275.698H200.369Z" fill="#E8EAEB"/>
<path d="M249.968 252.106C248.633 250.608 247.008 249.392 245.189 248.531C243.426 247.751 241.512 247.362 239.582 247.392C237.92 247.394 236.275 247.732 234.749 248.386C233.215 249.033 231.826 249.977 230.663 251.163C229.5 252.348 228.586 253.752 227.975 255.292C227.363 256.898 227.059 258.604 227.08 260.321C227.071 261.656 227.25 262.985 227.611 264.271C227.957 265.467 228.499 266.599 229.215 267.622C230.406 269.333 231.998 270.732 233.855 271.696C235.622 272.603 237.575 273.094 239.564 273.129C241.553 273.164 243.523 272.744 245.322 271.9C247.12 271.015 248.711 269.766 249.995 268.234V273.131C246.931 275.34 243.241 276.527 239.456 276.521C237.821 276.524 236.196 276.277 234.637 275.791C233.072 275.304 231.591 274.585 230.242 273.658C228.049 272.194 226.258 270.211 225.03 267.887C223.802 265.563 223.176 262.972 223.209 260.348C223.18 258.118 223.59 255.904 224.416 253.831C225.255 251.82 226.508 250.006 228.095 248.505C229.615 247.025 231.418 245.861 233.397 245.082C237.107 243.698 241.175 243.584 244.957 244.759C246.745 245.353 248.433 246.207 249.968 247.294V252.106Z" fill="#E8EAEB"/>
<path d="M294.133 253.395C294.067 253.125 293.961 252.361 293.815 251.111C293.683 250.077 293.57 249.215 293.471 248.537C293.322 249.36 293.114 250.172 292.848 250.966C292.561 251.813 292.222 252.642 291.833 253.448L282.421 272.406L273.042 253.053C272.649 252.258 272.311 251.488 272.028 250.742C271.743 249.992 271.491 249.254 271.279 248.53C271.257 249.314 271.195 250.096 271.093 250.874C270.978 251.737 270.819 252.594 270.616 253.441L266.772 270.971H261.409L269.88 233.864L280.486 256.331C280.651 256.693 280.897 257.285 281.235 258.108C281.573 258.931 281.97 259.958 282.448 261.176C282.905 259.844 283.436 258.539 284.038 257.266L284.476 256.291L294.796 233.87L303.479 270.978H298.064L294.133 253.395Z" fill="#151424"/>
<path d="M308.132 270.977V235.377H328.136V240.288H313.958V249.168H328.136V254.25H313.958V270.977H308.132Z" fill="#151424"/>
<path d="M334.454 270.978V235.378H343.489C345.405 235.324 347.322 235.463 349.209 235.793C350.341 236.025 351.41 236.489 352.351 237.155C353.475 237.977 354.367 239.075 354.936 240.341C355.56 241.708 355.874 243.193 355.858 244.693C355.918 246.375 355.455 248.034 354.532 249.446C353.601 250.751 352.243 251.694 350.687 252.112C351.658 252.234 352.593 252.548 353.439 253.034C354.287 253.52 355.028 254.169 355.619 254.942C356.873 256.66 357.507 258.747 357.421 260.867C357.43 262.273 357.173 263.668 356.666 264.981C356.191 266.219 355.454 267.341 354.506 268.272C353.5 269.28 352.241 270.003 350.859 270.366C349.408 270.774 346.969 270.971 343.535 270.971L334.454 270.978ZM340.161 250.407H342.388C345.159 250.407 347.127 250.031 348.274 249.274C349.422 248.517 350.005 247.253 350.005 245.469C350.005 243.528 349.475 242.178 348.413 241.375C347.353 240.572 345.345 240.197 342.388 240.197H340.161V250.407ZM340.161 266.139H342.15C343.679 266.171 345.207 266.089 346.723 265.896C347.587 265.801 348.417 265.51 349.149 265.047C349.868 264.576 350.446 263.921 350.82 263.151C351.225 262.269 351.424 261.308 351.402 260.339C351.38 259.37 351.138 258.418 350.694 257.555C350.228 256.713 349.522 256.026 348.666 255.581C348.064 255.289 347.424 255.085 346.764 254.975C345.83 254.826 344.885 254.76 343.939 254.778H340.168L340.161 266.139Z" fill="#151424"/>
<path d="M261.11 289.139V274.901H263.437V287.066H268.647V289.139H261.11Z" fill="#151424"/>
<path d="M274.594 289.139V274.901H276.9V289.139H274.594Z" fill="#151424"/>
<path d="M295.975 282.108C295.975 281.996 295.902 281.693 295.843 281.193C295.783 280.692 295.75 280.436 295.71 280.159C295.648 280.489 295.564 280.815 295.458 281.133C295.343 281.472 295.208 281.804 295.054 282.127L291.302 289.711L287.551 281.969C287.4 281.669 287.265 281.362 287.146 281.048C287.031 280.757 286.931 280.46 286.848 280.159C286.848 280.462 286.848 280.771 286.775 281.101C286.702 281.43 286.669 281.759 286.583 282.127L285.045 289.138H282.897L286.285 274.294L290.52 283.279C290.586 283.424 290.686 283.661 290.818 283.99L291.302 285.215C291.441 284.807 291.654 284.293 291.965 283.661L292.144 283.273L296.274 274.294L299.74 289.138H297.579L295.975 282.108Z" fill="#151424"/>
<path d="M305.633 289.139V274.901H307.966V289.139H305.633Z" fill="#151424"/>
<path d="M319.984 276.862V289.139H317.652V276.862H313.82V274.887H323.763V276.862H319.984Z" fill="#151424"/>
<path d="M329.542 289.139V274.901H337.542V276.876H331.869V280.437H337.542V282.464H331.869V287.073H337.542V289.146L329.542 289.139Z" fill="#151424"/>
<path d="M344.224 289.14V274.902H347.365C348.81 274.851 350.257 274.953 351.68 275.204C352.474 275.392 353.218 275.742 353.867 276.231C354.703 276.862 355.361 277.696 355.776 278.654C356.225 279.723 356.451 280.872 356.439 282.031C356.453 283.183 356.228 284.326 355.776 285.388C355.366 286.341 354.716 287.173 353.887 287.804C353.252 288.302 352.518 288.663 351.733 288.864C350.503 289.109 349.249 289.212 347.995 289.173H344.224V289.14ZM346.556 287.047H348.485C349.3 287.071 350.113 287.001 350.911 286.836C351.428 286.704 351.91 286.456 352.316 286.112C352.859 285.65 353.278 285.062 353.536 284.401C354.075 282.852 354.075 281.17 353.536 279.621C353.279 278.957 352.86 278.366 352.316 277.903C351.893 277.559 351.397 277.314 350.865 277.186C349.992 277.016 349.103 276.945 348.214 276.975H346.53L346.556 287.047Z" fill="#151424"/>
</g>
</g>
<defs>
<linearGradient id="paint0_linear_1103_1420" x1="190.73" y1="258.497" x2="259.5" y2="258.497" gradientUnits="userSpaceOnUse">
<stop stop-color="#D33339"/>
<stop offset="1" stop-color="#151424"/>
</linearGradient>
<clipPath id="clip0_1103_1420">
<rect width="167.848" height="68.2967" fill="white" transform="translate(190.152 224.352)"/>
</clipPath>
</defs>
</svg>
