<svg width="548" height="541" viewBox="0 0 548 541" fill="none" xmlns="http://www.w3.org/2000/svg">
<rect width="548" height="541" fill="black"/>
<rect x="126" y="46" width="10" height="80" transform="rotate(90 126 46)" fill="white"/>
<rect x="46" y="46" width="10" height="80" fill="white"/>
<rect x="46" y="410" width="10" height="80" fill="white"/>
<rect x="46" y="490" width="10" height="80" transform="rotate(-90 46 490)" fill="white"/>
<rect x="423" y="490" width="10" height="80" transform="rotate(-90 423 490)" fill="white"/>
<rect x="503" y="490" width="10" height="80" transform="rotate(-180 503 490)" fill="white"/>
<rect x="503" y="126" width="10" height="80" transform="rotate(-180 503 126)" fill="white"/>
<rect x="503" y="46" width="10" height="80" transform="rotate(90 503 46)" fill="white"/>
<rect width="230" height="230" transform="translate(159 156)" fill="white"/>
<mask id="mask0_1102_1543" style="mask-type:luminance" maskUnits="userSpaceOnUse" x="212" y="198" width="124" height="146">
<path d="M335.828 198.043H212.172V343.957H335.828V198.043Z" fill="white"/>
</mask>
<g mask="url(#mask0_1102_1543)">
<path d="M335.828 249.216C335.828 280.796 335.828 312.376 335.828 343.957C294.622 343.957 253.378 343.957 212.172 343.957C212.172 295.345 212.172 246.694 212.172 198.043C253.378 198.043 294.622 198.043 335.828 198.043C335.828 214.997 335.828 232.029 335.828 249.022C335.751 248.944 335.675 248.867 335.636 248.789C330.051 239.517 324.426 230.244 318.84 221.011C317.348 218.528 315.856 216.083 314.326 213.562C302.35 225.433 290.49 237.189 278.361 249.216C279.05 249.216 279.433 249.216 279.854 249.216C298.104 249.216 316.353 249.216 334.642 249.216C335.024 249.177 335.445 249.216 335.828 249.216ZM275.951 246.616C276.525 246.112 276.946 245.763 277.328 245.375C283.259 239.478 289.227 233.619 295.157 227.722C300.744 222.174 306.291 216.627 311.877 211.117C312.413 210.574 312.413 210.225 312.03 209.604C309.926 206.19 307.822 202.737 305.794 199.284C305.411 198.625 304.99 198.353 304.187 198.353C295.043 198.431 285.975 198.431 276.869 198.47C276.563 198.47 276.295 198.509 275.951 198.547C275.951 214.531 275.951 230.438 275.951 246.616ZM272.393 303.337C272.393 287.159 272.393 271.252 272.393 255.113C260.15 267.256 248.021 279.283 235.893 291.31C238.265 295.267 240.561 299.069 242.933 302.871C243.124 303.143 243.66 303.337 244.004 303.337C248.366 303.376 252.727 303.337 257.089 303.337C262.178 303.337 267.228 303.337 272.393 303.337ZM272.393 246.655C272.393 230.516 272.393 214.609 272.393 198.586C271.972 198.586 271.589 198.586 271.245 198.586C262.254 198.625 253.263 198.703 244.272 198.703C243.048 198.703 242.359 199.052 241.708 200.177C239.795 203.591 237.768 206.927 235.74 210.341C247.983 222.446 260.112 234.512 272.393 246.655ZM275.989 255.152C275.989 271.291 275.989 287.236 275.989 303.143C276.869 303.143 277.673 303.143 278.515 303.143C287.046 303.104 295.54 303.104 304.072 303.065C304.34 303.065 304.608 303.027 304.876 303.027C305.564 303.065 305.985 302.716 306.291 302.134C307.209 300.505 308.166 298.914 309.084 297.323C310.232 295.345 311.418 293.366 312.566 291.388C300.399 279.322 288.233 267.256 275.989 255.152ZM269.944 249.138C257.854 237.15 245.917 225.317 233.942 213.445C226.902 225.356 219.939 237.189 212.899 249.138C231.952 249.138 250.814 249.138 269.944 249.138ZM234.056 288.206C245.994 276.373 257.854 264.618 269.868 252.707C250.661 252.707 231.684 252.707 212.554 252.707C219.747 264.618 226.902 276.373 234.056 288.206ZM335.407 252.746C316.43 252.746 297.568 252.746 278.515 252.746C290.566 264.657 302.465 276.49 314.402 288.323C321.48 276.373 328.405 264.618 335.407 252.746ZM267.457 311.251C264.664 311.251 261.948 311.29 259.27 311.213C258.466 311.174 258.045 311.523 257.663 312.144C255.712 315.364 253.684 318.545 251.656 321.804C251.465 321.533 251.312 321.3 251.159 321.067C249.513 318.429 247.792 315.868 246.3 313.191C245.458 311.678 244.501 311.019 242.703 311.174C240.446 311.368 238.15 311.213 235.893 311.213C235.893 313.346 235.893 315.364 235.893 317.381C236.467 317.42 236.964 317.42 237.462 317.459C237.462 322.503 237.462 327.469 237.462 332.551C236.888 332.551 236.39 332.551 235.931 332.551C235.931 334.684 235.931 336.702 235.931 338.719C239.681 338.719 243.392 338.719 247.103 338.719C247.103 336.624 247.103 334.607 247.103 332.511C246.529 332.511 245.994 332.511 245.534 332.511C245.534 330.222 245.534 328.05 245.534 325.684C247.639 329.059 249.628 332.241 251.656 335.461C253.722 332.163 255.712 328.981 257.816 325.606C257.816 328.089 257.816 330.3 257.816 332.511C257.242 332.551 256.706 332.551 256.209 332.589C256.209 334.684 256.209 336.702 256.209 338.719C259.997 338.719 263.708 338.719 267.496 338.719C267.496 336.664 267.496 334.646 267.496 332.511C266.922 332.511 266.348 332.511 265.851 332.511C265.851 327.429 265.851 322.463 265.851 317.459C266.424 317.42 266.96 317.381 267.496 317.381C267.457 315.325 267.457 313.346 267.457 311.251ZM279.203 332.551C279.203 330.843 279.203 329.331 279.203 327.663C280.275 327.663 281.269 327.663 282.302 327.663C283.373 327.663 283.909 328.244 283.909 329.291C283.909 331.852 283.909 334.413 283.909 336.974C283.909 337.595 283.909 338.176 283.909 338.758C287.199 338.758 290.337 338.758 293.474 338.758C293.474 336.664 293.474 334.646 293.474 332.551C292.9 332.551 292.403 332.551 291.829 332.551C291.829 331.232 291.714 329.99 291.867 328.788C292.059 327.042 291.599 325.723 290.145 324.714C290.107 324.675 290.069 324.597 289.993 324.365C290.222 324.171 290.528 323.899 290.834 323.705C291.714 323.123 291.905 322.347 291.867 321.339C291.791 319.67 291.867 318.041 291.829 316.373C291.829 315.985 291.599 315.519 291.332 315.247C290.222 314.122 289.112 312.997 287.926 311.95C287.506 311.601 286.893 311.29 286.358 311.29C281.078 311.251 275.798 311.251 270.518 311.251C270.212 311.251 269.944 311.29 269.638 311.29C269.638 313.385 269.638 315.403 269.638 317.42C270.212 317.459 270.709 317.459 271.169 317.498C271.169 322.541 271.169 327.507 271.169 332.589C270.595 332.589 270.097 332.589 269.638 332.589C269.638 334.724 269.638 336.74 269.638 338.719C273.426 338.719 277.099 338.719 280.81 338.719C280.81 336.624 280.81 334.607 280.81 332.511C280.275 332.551 279.777 332.551 279.203 332.551ZM295.617 319.011C297.797 319.011 299.94 319.011 302.044 319.011C302.083 318.468 302.083 317.963 302.121 317.498C302.695 317.498 303.192 317.498 303.689 317.498C303.689 322.541 303.689 327.507 303.689 332.511C303.116 332.551 302.58 332.551 302.083 332.589C302.083 334.684 302.083 336.702 302.083 338.719C305.832 338.719 309.581 338.719 313.331 338.719C313.331 336.624 313.331 334.607 313.331 332.473C312.757 332.473 312.26 332.473 311.762 332.473C311.762 327.391 311.762 322.425 311.762 317.459C312.298 317.459 312.795 317.459 313.331 317.459C313.369 318.041 313.407 318.506 313.407 319.011C315.588 319.011 317.654 319.011 319.72 319.011C319.72 316.411 319.72 313.851 319.72 311.251C311.647 311.251 303.689 311.251 295.655 311.251C295.617 313.89 295.617 316.411 295.617 319.011Z" fill="#FDFDFE"/>
<path d="M335.828 249.216C335.407 249.216 335.024 249.177 334.604 249.177C316.354 249.177 298.104 249.177 279.815 249.177C279.433 249.177 279.012 249.177 278.323 249.177C290.452 237.189 302.312 225.395 314.288 213.523C315.818 216.045 317.31 218.489 318.802 220.972C324.388 230.244 330.012 239.517 335.598 248.75C335.637 248.828 335.713 248.905 335.79 248.983C335.828 249.061 335.828 249.138 335.828 249.216Z" fill="#1B76B9"/>
<path d="M275.951 246.617C275.951 230.438 275.951 214.532 275.951 198.547C276.257 198.509 276.563 198.47 276.869 198.47C285.975 198.431 295.043 198.431 304.149 198.354C304.952 198.354 305.373 198.625 305.756 199.285C307.822 202.738 309.888 206.19 311.992 209.605C312.375 210.186 312.375 210.574 311.839 211.118C306.253 216.627 300.705 222.175 295.119 227.723C289.189 233.62 283.259 239.478 277.29 245.375C276.946 245.763 276.525 246.112 275.951 246.617Z" fill="#2CACE3"/>
<path d="M272.392 303.337C267.227 303.337 262.139 303.337 257.089 303.337C252.727 303.337 248.365 303.376 244.004 303.337C243.621 303.337 243.085 303.143 242.932 302.872C240.599 299.07 238.303 295.268 235.893 291.31C248.021 279.284 260.149 267.257 272.392 255.113C272.392 271.214 272.392 287.159 272.392 303.337Z" fill="#31368F"/>
<path d="M272.392 246.655C260.111 234.512 247.982 222.446 235.777 210.342C237.805 206.928 239.833 203.591 241.746 200.177C242.358 199.052 243.047 198.703 244.309 198.703C253.3 198.703 262.292 198.625 271.283 198.586C271.665 198.586 272.01 198.586 272.43 198.586C272.392 214.609 272.392 230.516 272.392 246.655Z" fill="#31368F"/>
<path d="M275.99 255.152C288.233 267.295 300.362 279.322 312.567 291.427C311.419 293.405 310.233 295.384 309.085 297.363C308.129 298.953 307.172 300.544 306.292 302.173C305.948 302.794 305.565 303.104 304.876 303.066C304.609 303.066 304.341 303.104 304.073 303.104C295.541 303.143 287.047 303.143 278.515 303.182C277.712 303.182 276.87 303.182 275.99 303.182C275.99 287.198 275.99 271.291 275.99 255.152Z" fill="#31368F"/>
<path d="M269.945 249.139C250.777 249.139 231.915 249.139 212.899 249.139C219.939 237.189 226.902 225.356 233.942 213.446C245.956 225.318 257.855 237.151 269.945 249.139Z" fill="#31368F"/>
<path d="M234.057 288.206C226.902 276.374 219.748 264.618 212.555 252.708C231.685 252.708 250.662 252.708 269.868 252.708C257.854 264.618 245.994 276.374 234.057 288.206Z" fill="#31368F"/>
<path d="M335.407 252.746C328.405 264.618 321.48 276.412 314.441 288.323C302.503 276.49 290.566 264.657 278.553 252.746C297.568 252.746 316.43 252.746 335.407 252.746Z" fill="#2A2762"/>
<path d="M267.458 311.251C267.458 313.346 267.458 315.325 267.458 317.42C266.923 317.459 266.387 317.498 265.813 317.498C265.813 322.503 265.813 327.429 265.813 332.551C266.349 332.551 266.884 332.551 267.458 332.551C267.458 334.684 267.458 336.702 267.458 338.758C263.671 338.758 259.959 338.758 256.172 338.758C256.172 336.702 256.172 334.724 256.172 332.629C256.707 332.589 257.205 332.589 257.778 332.551C257.778 330.339 257.778 328.166 257.778 325.645C255.674 329.021 253.685 332.201 251.619 335.499C249.591 332.241 247.601 329.059 245.497 325.723C245.497 328.089 245.497 330.262 245.497 332.551C245.956 332.551 246.492 332.551 247.066 332.551C247.066 334.684 247.066 336.702 247.066 338.758C243.354 338.758 239.682 338.758 235.894 338.758C235.894 336.78 235.894 334.724 235.894 332.589C236.353 332.589 236.888 332.589 237.424 332.589C237.424 327.507 237.424 322.541 237.424 317.498C236.927 317.459 236.429 317.459 235.855 317.42C235.855 315.403 235.855 313.385 235.855 311.251C238.151 311.251 240.408 311.407 242.666 311.213C244.464 311.057 245.42 311.717 246.262 313.23C247.754 315.946 249.476 318.506 251.121 321.106C251.274 321.339 251.427 321.532 251.619 321.842C253.646 318.584 255.674 315.364 257.625 312.183C258.008 311.562 258.391 311.213 259.232 311.251C261.949 311.29 264.665 311.251 267.458 311.251Z" fill="#2B2863"/>
<path d="M279.204 332.552C279.739 332.552 280.237 332.552 280.81 332.552C280.81 334.646 280.81 336.664 280.81 338.759C277.099 338.759 273.426 338.759 269.639 338.759C269.639 336.781 269.639 334.763 269.639 332.63C270.098 332.63 270.633 332.63 271.169 332.63C271.169 327.547 271.169 322.581 271.169 317.537C270.672 317.498 270.174 317.498 269.639 317.46C269.639 315.442 269.639 313.425 269.639 311.33C269.945 311.33 270.213 311.291 270.519 311.291C275.798 311.291 281.078 311.252 286.358 311.33C286.894 311.33 287.506 311.64 287.927 311.989C289.113 313.037 290.222 314.123 291.332 315.287C291.6 315.559 291.791 316.024 291.829 316.412C291.868 318.08 291.791 319.71 291.868 321.378C291.906 322.387 291.715 323.202 290.835 323.745C290.528 323.939 290.261 324.21 289.993 324.404C290.108 324.636 290.108 324.714 290.146 324.754C291.562 325.723 292.059 327.081 291.868 328.827C291.715 330.03 291.829 331.31 291.829 332.59C292.403 332.59 292.901 332.59 293.474 332.59C293.474 334.686 293.474 336.703 293.474 338.797C290.337 338.797 287.2 338.797 283.91 338.797C283.91 338.216 283.91 337.634 283.91 337.013C283.91 334.452 283.91 331.893 283.91 329.332C283.91 328.284 283.374 327.702 282.303 327.702C281.308 327.702 280.275 327.702 279.204 327.702C279.204 329.332 279.204 330.844 279.204 332.552ZM279.204 317.46C279.204 318.856 279.204 320.137 279.204 321.494C280.39 321.494 281.537 321.572 282.685 321.456C283.106 321.417 283.68 320.913 283.871 320.486C284.063 320.02 283.948 319.399 283.91 318.856C283.833 318.042 283.336 317.537 282.57 317.498C281.461 317.382 280.39 317.46 279.204 317.46Z" fill="#2B2863"/>
<path d="M295.617 319.011C295.617 316.412 295.617 313.89 295.617 311.291C303.652 311.291 311.648 311.291 319.683 311.291C319.683 313.89 319.683 316.451 319.683 319.05C317.617 319.05 315.512 319.05 313.37 319.05C313.332 318.585 313.332 318.08 313.293 317.498C312.796 317.498 312.299 317.498 311.725 317.498C311.725 322.464 311.725 327.43 311.725 332.513C312.222 332.513 312.719 332.513 313.293 332.513C313.293 334.646 313.293 336.664 313.293 338.759C309.544 338.759 305.833 338.759 302.045 338.759C302.045 336.703 302.045 334.724 302.045 332.63C302.542 332.59 303.078 332.59 303.652 332.552C303.652 327.547 303.652 322.581 303.652 317.537C303.154 317.537 302.657 317.537 302.083 317.537C302.045 318.042 302.045 318.507 302.007 319.05C299.902 319.011 297.798 319.011 295.617 319.011Z" fill="#2B2863"/>
<path d="M279.203 317.46C280.389 317.46 281.461 317.421 282.532 317.46C283.297 317.498 283.833 318.003 283.871 318.818C283.909 319.361 284.024 319.981 283.833 320.447C283.642 320.874 283.106 321.378 282.647 321.417C281.499 321.572 280.351 321.456 279.165 321.456C279.203 320.098 279.203 318.856 279.203 317.46Z" fill="#F3F2F5"/>
</g>
</svg>
