<svg width="24" height="24" viewBox="0 0 24 24" fill="none" xmlns="http://www.w3.org/2000/svg">
<path d="M12.0108 22C7.96953 22.0053 4.32413 19.5723 2.77846 15.8383C1.23279 12.1042 2.09213 7.80657 4.95483 4.954C7.474 2.42573 11.1517 1.43555 14.5998 2.35722C18.0478 3.2789 20.7409 5.97205 21.6626 9.42007C22.5843 12.8681 21.5941 16.5458 19.0658 19.065C17.2005 20.9462 14.6601 22.0031 12.0108 22ZM10.5288 15.272C12.3665 15.2337 14.1779 15.7133 15.7558 16.656C15.8531 16.7213 15.9677 16.7561 16.0848 16.756C16.2983 16.7506 16.4947 16.6378 16.6068 16.456C16.6941 16.2875 16.7093 16.0908 16.6488 15.911C16.5977 15.7742 16.4914 15.6653 16.3558 15.611C14.5792 14.5542 12.5415 14.0175 10.4748 14.062C9.19256 14.0718 7.91524 14.2224 6.66583 14.511C6.33826 14.5983 6.13909 14.9298 6.21583 15.26C6.29318 15.5265 6.52983 15.7155 6.80683 15.732C6.85999 15.7318 6.91285 15.7241 6.96383 15.709C8.13218 15.431 9.32793 15.2844 10.5288 15.272ZM10.3388 12.296C12.5871 12.2695 14.8018 12.8429 16.7548 13.957C16.8661 14.0379 17.0003 14.0813 17.1378 14.081C17.4073 14.0705 17.6555 13.9319 17.8058 13.708C17.9233 13.5367 17.9598 13.3226 17.9058 13.122C17.8693 12.9481 17.7601 12.7982 17.6058 12.71C15.3976 11.4347 12.8878 10.7748 10.3378 10.799C8.9936 10.7908 7.6554 10.9794 6.36583 11.359C5.96959 11.4894 5.74832 11.9107 5.86583 12.311C5.96393 12.6344 6.26921 12.8499 6.60683 12.834C6.67861 12.8347 6.75018 12.8263 6.81983 12.809C7.95962 12.4587 9.14648 12.2857 10.3388 12.296ZM10.5278 9.208C13.0918 9.13404 15.6318 9.71938 17.9048 10.908C18.0581 10.9917 18.2302 11.0348 18.4048 11.033C18.7149 11.0395 19.0104 10.9017 19.2048 10.66C19.3257 10.4388 19.3572 10.1797 19.2928 9.936C19.2326 9.69286 19.0749 9.48525 18.8568 9.362C16.2936 7.99964 13.4217 7.32309 10.5198 7.398C8.91306 7.38146 7.31177 7.5881 5.76183 8.012C5.32647 8.14664 5.05654 8.58113 5.12873 9.03109C5.20091 9.48104 5.5932 9.8093 6.04883 9.801C6.13755 9.80107 6.2258 9.78827 6.31083 9.763C7.68211 9.3742 9.10265 9.18691 10.5278 9.207V9.208Z" fill="white"/>
</svg>
    