<svg width="18" height="14" viewBox="0 0 18 14" fill="none" xmlns="http://www.w3.org/2000/svg">
<path d="M17.4683 1.71333C16.8321 1.99474 16.1574 2.17956 15.4666 2.26167C16.1947 1.82619 16.7397 1.14084 16.9999 0.333333C16.3166 0.74 15.5674 1.025 14.7866 1.17917C14.2621 0.617982 13.5669 0.245803 12.809 0.120487C12.0512 -0.0048282 11.2732 0.123742 10.596 0.486211C9.91875 0.848679 9.38024 1.42474 9.06418 2.12483C8.74812 2.82492 8.67221 3.60982 8.84825 4.3575C7.46251 4.28804 6.10686 3.92794 4.86933 3.30055C3.63179 2.67317 2.54003 1.79254 1.66492 0.715833C1.35516 1.24788 1.19238 1.85269 1.19326 2.46833C1.19326 3.67667 1.80826 4.74417 2.74326 5.36917C2.18993 5.35175 1.64878 5.20232 1.16492 4.93333V4.97667C1.16509 5.78142 1.44356 6.56135 1.95313 7.18422C2.46269 7.80709 3.17199 8.23456 3.96075 8.39417C3.4471 8.53336 2.90851 8.55388 2.38576 8.45417C2.60814 9.14686 3.04159 9.75266 3.62541 10.1868C4.20924 10.6208 4.9142 10.8615 5.64159 10.875C4.91866 11.4428 4.0909 11.8625 3.20566 12.1101C2.32041 12.3578 1.39503 12.4285 0.482422 12.3183C2.0755 13.3429 3.93 13.8868 5.82409 13.885C12.2349 13.885 15.7408 8.57417 15.7408 3.96833C15.7408 3.81833 15.7366 3.66667 15.7299 3.51833C16.4123 3.02514 17.0013 2.41418 17.4691 1.71417L17.4683 1.71333Z" fill="black"/>
</svg>
